<svg  viewBox="0 0 16 16" fill="none" xmlns="http://www.w3.org/2000/svg">
<path d="M4.50011 1.99609V3.49609M11.5001 1.99609V3.49609M1.99878 12.4961V4.99409C1.99878 4.59627 2.15681 4.21474 2.43812 3.93343C2.71942 3.65213 3.10095 3.49409 3.49878 3.49409H12.4988C12.8966 3.49409 13.2781 3.65213 13.5594 3.93343C13.8407 4.21474 13.9988 4.59627 13.9988 4.99409V12.4948M13.9988 12.4948C13.9988 12.8926 13.8407 13.2741 13.5594 13.5554C13.2781 13.8367 12.8966 13.9948 12.4988 13.9948H3.49878C3.10095 13.9948 2.71942 13.8367 2.43812 13.5554C2.15681 13.2741 1.99878 12.8926 1.99878 12.4948V7.49476C1.99878 7.09693 2.15681 6.7154 2.43812 6.4341C2.71942 6.1528 3.10095 5.99476 3.49878 5.99476H12.4988C12.8966 5.99476 13.2781 6.1528 13.5594 6.4341C13.8407 6.7154 13.9988 7.09693 13.9988 7.49476V12.4948ZM9.49878 8.49476H10.9988M4.99878 9.99476H7.99878M8.00011 8.49476H8.00345V8.49876H8.00011V8.49476ZM7.99945 11.4948H8.00345V11.4988H7.99945V11.4948ZM6.49945 11.4954H6.50278V11.4994H6.50011V11.4954H6.49945ZM4.99945 11.4954H5.00278V11.4988H4.99878V11.4954H4.99945ZM9.49945 9.99743H9.50278V10.0008H9.49945V9.99743ZM9.49945 11.4954H9.50345V11.4994H9.49945V11.4954ZM10.9994 9.99676H11.0034V10.0001H11.0001L10.9994 9.99676Z" stroke="#FFFFF8" stroke-linecap="round" stroke-linejoin="round"/>
</svg>
