<svg width="23" height="23" viewBox="0 0 23 23" fill="none" xmlns="http://www.w3.org/2000/svg">
<path d="M2.15625 2.875H3.4845C3.97325 2.875 4.39971 3.20371 4.52621 3.67521L4.89325 5.05233M4.89325 5.05233C10.2318 4.90273 15.5652 5.49619 20.7402 6.81567C19.9506 9.16742 19.0124 11.4521 17.9381 13.6562H7.1875M4.89325 5.05233L7.1875 13.6562M7.1875 13.6562C6.425 13.6562 5.69374 13.9592 5.15457 14.4983C4.6154 15.0375 4.3125 15.7688 4.3125 16.5312H19.4062M5.75 19.4062C5.75 19.5969 5.67427 19.7797 5.53948 19.9145C5.40469 20.0493 5.22187 20.125 5.03125 20.125C4.84063 20.125 4.65781 20.0493 4.52302 19.9145C4.38823 19.7797 4.3125 19.5969 4.3125 19.4062C4.3125 19.2156 4.38823 19.0328 4.52302 18.898C4.65781 18.7632 4.84063 18.6875 5.03125 18.6875C5.22187 18.6875 5.40469 18.7632 5.53948 18.898C5.67427 19.0328 5.75 19.2156 5.75 19.4062ZM17.9687 19.4062C17.9687 19.5969 17.893 19.7797 17.7582 19.9145C17.6234 20.0493 17.4406 20.125 17.25 20.125C17.0594 20.125 16.8766 20.0493 16.7418 19.9145C16.607 19.7797 16.5312 19.5969 16.5312 19.4062C16.5312 19.2156 16.607 19.0328 16.7418 18.898C16.8766 18.7632 17.0594 18.6875 17.25 18.6875C17.4406 18.6875 17.6234 18.7632 17.7582 18.898C17.893 19.0328 17.9687 19.2156 17.9687 19.4062Z" stroke="currentColor" stroke-width="1.5" stroke-linecap="round" stroke-linejoin="round"/>
</svg>
