<svg width="23" height="15" viewBox="0 0 23 15" fill="none" xmlns="http://www.w3.org/2000/svg">
<path id="Vector" d="M22.8611 6.92969C20.6956 2.79648 16.4087 0 11.5 0C6.59133 0 2.30318 2.79844 0.138937 6.93008C0.0475922 7.10684 0 7.30213 0 7.5002C0 7.69826 0.0475922 7.89355 0.138937 8.07031C2.30437 12.2035 6.59133 15 11.5 15C16.4087 15 20.6968 12.2016 22.8611 8.06992C22.9524 7.89316 23 7.69787 23 7.4998C23 7.30174 22.9524 7.10645 22.8611 6.92969ZM11.5 13.125C10.3628 13.125 9.25105 12.7951 8.30546 12.177C7.35988 11.5589 6.62289 10.6804 6.18768 9.65259C5.75248 8.62476 5.63861 7.49376 5.86047 6.40262C6.08234 5.31147 6.62997 4.30919 7.43413 3.52252C8.23828 2.73585 9.26284 2.20012 10.3782 1.98308C11.4936 1.76604 12.6498 1.87743 13.7004 2.30318C14.7511 2.72892 15.6491 3.44989 16.281 4.37492C16.9128 5.29994 17.25 6.38748 17.25 7.5C17.2504 8.23879 17.1019 8.9704 16.8131 9.65302C16.5242 10.3356 16.1007 10.9559 15.5667 11.4783C15.0327 12.0007 14.3987 12.415 13.7009 12.6976C13.0031 12.9801 12.2552 13.1254 11.5 13.125ZM11.5 3.75C11.1578 3.75468 10.8179 3.80448 10.4894 3.89805C10.7602 4.25808 10.8901 4.70113 10.8557 5.14685C10.8212 5.59258 10.6246 6.01146 10.3015 6.32754C9.97838 6.64362 9.55019 6.83595 9.09456 6.86967C8.63892 6.90339 8.18603 6.77626 7.818 6.51133C7.60843 7.26664 7.64626 8.06722 7.92616 8.80039C8.20607 9.53356 8.71395 10.1624 9.37833 10.5984C10.0427 11.0344 10.8301 11.2556 11.6298 11.2309C12.4294 11.2062 13.201 10.9368 13.8359 10.4607C14.4708 9.98451 14.9371 9.32555 15.1692 8.57656C15.4012 7.82756 15.3873 7.02624 15.1294 6.28538C14.8715 5.54452 14.3826 4.90142 13.7316 4.44661C13.0805 3.99179 12.3 3.74816 11.5 3.75Z" fill="black" fill-opacity="0.5"/>
</svg>
