<svg width="18" height="18" viewBox="0 0 18 18" fill="none" xmlns="http://www.w3.org/2000/svg">
<path id="Vector" d="M16.5 2.25H12V5.625H6V2.25H1.5C0.671875 2.25 0 3.00586 0 3.9375V16.3125C0 17.2441 0.671875 18 1.5 18H16.5C17.3281 18 18 17.2441 18 16.3125V3.9375C18 3.00586 17.3281 2.25 16.5 2.25ZM9 7.875C10.1031 7.875 11 8.88398 11 10.125C11 11.366 10.1031 12.375 9 12.375C7.89687 12.375 7 11.366 7 10.125C7 8.88398 7.89687 7.875 9 7.875ZM11.9156 15.75H6.08437C5.75938 15.75 5.49688 15.3984 5.59688 15.0539C5.85625 14.1539 6.60938 13.5 7.5 13.5H7.75625C8.14062 13.6793 8.55937 13.7812 9 13.7812C9.44063 13.7812 9.8625 13.6793 10.2437 13.5H10.5C11.3875 13.5 12.1406 14.1504 12.4031 15.0539C12.5031 15.3984 12.2406 15.75 11.9156 15.75ZM11 1.125C11 0.502734 10.5531 0 10 0H8C7.44688 0 7 0.502734 7 1.125V4.5H11V1.125Z" fill="black" fill-opacity="0.5"/>
</svg>
