<svg width="247" height="106" viewBox="0 0 247 106" fill="none" xmlns="http://www.w3.org/2000/svg">
<path d="M135.704 105.727H83.86V92.3971L117.358 47.2192H84.8907V34.7037H134.673V48.0332L101.176 93.2111H135.704V105.727Z" fill="#FF8404"/>
<path d="M210.926 106H195.671V34.9772H223.5C227.005 34.9772 230.131 35.5199 232.879 36.6052C235.628 37.6227 237.93 39.1151 239.785 41.0823C241.709 43.0495 243.152 45.4237 244.114 48.205C245.076 50.9862 245.557 54.1066 245.557 57.5661C245.557 62.5859 244.458 66.8934 242.259 70.4886C240.06 74.0838 236.934 76.458 232.879 77.6112L247 106H230.097L218.037 79.6463H210.926V106ZM219.79 67.8431C223.431 67.8431 225.939 67.1647 227.314 65.808C228.757 64.4513 229.478 62.2128 229.478 59.0924V56.0398C229.478 52.9195 228.757 50.6809 227.314 49.3242C225.939 47.9675 223.431 47.2892 219.79 47.2892H210.926V67.8431H219.79Z" fill="#FF8404"/>
<path d="M179.599 106L175.064 88.9057H155.378L150.946 106H135.279L154.759 34.9772H176.61L196.09 106H179.599ZM165.684 49.7312H164.86L157.851 76.5937H172.693L165.684 49.7312Z" fill="#FF8404"/>
<path d="M61.0338 105.727L54.7885 82.0014H27.6781L21.5748 105.727H0L26.8265 7.15443H56.9176L83.7441 105.727H61.0338ZM41.8721 27.6314H40.7365L31.0847 64.9137H51.5239L41.8721 27.6314Z" fill="#FF8404"/>
<path d="M145.049 30.7118V0H165.684V5.41196H151.734V12.4519H164.214V17.8639H151.734V30.7118H145.049Z" fill="#000022"/>
<path d="M177.852 32.4553C173.692 32.4553 170.617 31.0619 168.626 28.2753C166.665 25.4886 165.684 21.5873 165.684 16.5714C165.684 11.5554 166.665 7.65411 168.626 4.86747C170.617 2.08082 173.692 0.687496 177.852 0.687496C182.012 0.687496 185.072 2.08082 187.033 4.86747C189.024 7.65411 190.019 11.5554 190.019 16.5714C190.019 21.5873 189.024 25.4886 187.033 28.2753C185.072 31.0619 182.012 32.4553 177.852 32.4553ZM177.852 27.1313C179.754 27.1313 181.061 26.442 181.774 25.0633C182.517 23.6553 182.888 21.7047 182.888 19.2114V13.8874C182.888 11.4234 182.517 9.5021 181.774 8.12344C181.061 6.71545 179.754 6.01146 177.852 6.01146C175.95 6.01146 174.628 6.71545 173.885 8.12344C173.172 9.5021 172.816 11.4234 172.816 13.8874V19.2554C172.816 21.7193 173.172 23.6553 173.885 25.0633C174.628 26.442 175.95 27.1313 177.852 27.1313Z" fill="#000022"/>
<path d="M203.031 31.7678C198.871 31.7678 195.796 30.3744 193.805 27.5878C191.844 24.8011 190.864 20.8998 190.864 15.8839C190.864 10.8679 191.844 6.96661 193.805 4.17997C195.796 1.39332 198.871 0 203.031 0C207.191 0 210.251 1.39332 212.212 4.17997C214.203 6.96661 215.199 10.8679 215.199 15.8839C215.199 20.8998 214.203 24.8011 212.212 27.5878C210.251 30.3744 207.191 31.7678 203.031 31.7678ZM203.031 26.4438C204.933 26.4438 206.24 25.7545 206.953 24.3758C207.696 22.9678 208.067 21.0172 208.067 18.5239V13.1999C208.067 10.7359 207.696 8.8146 206.953 7.43595C206.24 6.02795 204.933 5.32396 203.031 5.32396C201.129 5.32396 199.807 6.02795 199.064 7.43595C198.351 8.8146 197.995 10.7359 197.995 13.1999V18.5679C197.995 21.0318 198.351 22.9678 199.064 24.3758C199.807 25.7545 201.129 26.4438 203.031 26.4438Z" fill="#000022"/>
<path d="M216.157 0.687496H226.186C230.375 0.687496 233.48 2.00749 235.501 4.64747C237.521 7.28745 238.531 11.0861 238.531 16.0434C238.531 21.0007 237.521 24.7993 235.501 27.4393C233.48 30.0793 230.375 31.3993 226.186 31.3993H216.157V0.687496ZM225.74 26.2073C227.731 26.2073 229.187 25.5766 230.108 24.3153C231.029 23.054 231.489 21.2207 231.489 18.8154V13.2274C231.489 10.8514 231.029 9.03277 230.108 7.77144C229.187 6.51012 227.731 5.87946 225.74 5.87946H222.754V26.2073H225.74Z" fill="#000022"/>
</svg>
