<svg width="15" height="15" viewBox="0 0 15 15" fill="none" xmlns="http://www.w3.org/2000/svg">
<path d="M1.40625 5.15625H13.5938M1.40625 5.625H13.5938M3.28125 8.90625H7.03125M3.28125 10.3125H5.15625M2.8125 12.1875H12.1875C12.5605 12.1875 12.9181 12.0393 13.1819 11.7756C13.4456 11.5119 13.5938 11.1542 13.5938 10.7812V4.21875C13.5938 3.84579 13.4456 3.4881 13.1819 3.22438C12.9181 2.96066 12.5605 2.8125 12.1875 2.8125H2.8125C2.43954 2.8125 2.08185 2.96066 1.81813 3.22438C1.55441 3.4881 1.40625 3.84579 1.40625 4.21875V10.7812C1.40625 11.1542 1.55441 11.5119 1.81813 11.7756C2.08185 12.0393 2.43954 12.1875 2.8125 12.1875Z" stroke="#FFFFF8" stroke-linecap="round" stroke-linejoin="round"/>
</svg>
