<svg  viewBox="0 0 68 29" fill="none" xmlns="http://www.w3.org/2000/svg">
<path d="M37.3598 28.9252H23.087V25.2784L32.309 12.9185H23.3707V9.49442H37.0761V13.1412L27.854 25.5011H37.3598V28.9252Z" fill="#FF8404"/>
<path d="M58.0686 29H53.869V9.56924H61.5304C62.4952 9.56924 63.3559 9.7177 64.1126 10.0146C64.8692 10.293 65.503 10.7013 66.0137 11.2395C66.5434 11.7777 66.9407 12.4272 67.2055 13.1881C67.4703 13.949 67.6027 14.8027 67.6027 15.7492C67.6027 17.1226 67.3001 18.301 66.6947 19.2846C66.0894 20.2682 65.2287 20.9178 64.1126 21.2333L68 29H63.3464L60.0265 21.79H58.0686V29ZM60.5089 18.5608C61.5115 18.5608 62.202 18.3752 62.5803 18.0041C62.9775 17.6329 63.1762 17.0205 63.1762 16.1668V15.3317C63.1762 14.478 62.9775 13.8655 62.5803 13.4944C62.202 13.1232 61.5115 12.9376 60.5089 12.9376H58.0686V18.5608H60.5089Z" fill="#FF8404"/>
<path d="M49.4442 29L48.1957 24.3233H42.776L41.5559 29H37.2428L42.6057 9.56924H48.6213L53.9843 29H49.4442ZM45.6135 13.6057H45.3865L43.457 20.9549H47.5431L45.6135 13.6057Z" fill="#FF8404"/>
<path d="M16.8028 28.9252L15.0835 22.4344H7.61989L5.93961 28.9252H0L7.38543 1.95734H15.6696L23.0551 28.9252H16.8028ZM11.5275 7.55955H11.2149L8.55772 17.7594H14.1847L11.5275 7.55955Z" fill="#FF8404"/>
<path d="M39.9325 8.40228V0H45.6135V1.48063H41.773V3.40665H45.2086V4.88728H41.773V8.40228H39.9325Z" fill="#FFFFF8"/>
<path d="M48.9633 8.87927C47.8181 8.87927 46.9714 8.49808 46.4234 7.73569C45.8835 6.97331 45.6135 5.90597 45.6135 4.53368C45.6135 3.16139 45.8835 2.09405 46.4234 1.33167C46.9714 0.569281 47.8181 0.188088 48.9633 0.188088C50.1085 0.188088 50.9511 0.569281 51.4909 1.33167C52.039 2.09405 52.313 3.16139 52.313 4.53368C52.313 5.90597 52.039 6.97331 51.4909 7.73569C50.9511 8.49808 50.1085 8.87927 48.9633 8.87927ZM48.9633 7.42271C49.4868 7.42271 49.8467 7.23412 50.0431 6.85694C50.2476 6.47174 50.3498 5.93807 50.3498 5.25594V3.79938C50.3498 3.12527 50.2476 2.59963 50.0431 2.22245C49.8467 1.83725 49.4868 1.64464 48.9633 1.64464C48.4398 1.64464 48.0757 1.83725 47.8712 2.22245C47.6749 2.59963 47.5768 3.12527 47.5768 3.79938V5.26797C47.5768 5.94208 47.6749 6.47174 47.8712 6.85694C48.0757 7.23412 48.4398 7.42271 48.9633 7.42271Z" fill="#FFFFF8"/>
<path d="M55.8952 8.69118C54.75 8.69118 53.9034 8.30999 53.3553 7.5476C52.8154 6.78522 52.5455 5.71788 52.5455 4.34559C52.5455 2.9733 52.8154 1.90596 53.3553 1.14358C53.9034 0.381192 54.75 0 55.8952 0C57.0404 0 57.883 0.381192 58.4229 1.14358C58.9709 1.90596 59.245 2.9733 59.245 4.34559C59.245 5.71788 58.9709 6.78522 58.4229 7.5476C57.883 8.30999 57.0404 8.69118 55.8952 8.69118ZM55.8952 7.23462C56.4187 7.23462 56.7787 7.04603 56.975 6.66886C57.1795 6.28365 57.2817 5.74998 57.2817 5.06785V3.61129C57.2817 2.93719 57.1795 2.41154 56.975 2.03436C56.7787 1.64916 56.4187 1.45655 55.8952 1.45655C55.3717 1.45655 55.0077 1.64916 54.8032 2.03436C54.6068 2.41154 54.5087 2.93719 54.5087 3.61129V5.07989C54.5087 5.75399 54.6068 6.28365 54.8032 6.66886C55.0077 7.04603 55.3717 7.23462 55.8952 7.23462Z" fill="#FFFFF8"/>
<path d="M59.5089 0.188088H62.2697C63.4231 0.188088 64.2779 0.549218 64.8342 1.27148C65.3904 1.99374 65.6685 3.03299 65.6685 4.38923C65.6685 5.74547 65.3904 6.78472 64.8342 7.50698C64.2779 8.22924 63.4231 8.59036 62.2697 8.59036H59.5089V0.188088ZM62.147 7.16992C62.6951 7.16992 63.0959 6.99738 63.3495 6.6523C63.6031 6.30722 63.7299 5.80566 63.7299 5.1476V3.61882C63.7299 2.96878 63.6031 2.47123 63.3495 2.12615C63.0959 1.78107 62.6951 1.60853 62.147 1.60853H61.3249V7.16992H62.147Z" fill="#FFFFF8"/>
</svg>
