<svg width="16" height="15" viewBox="0 0 16 15" fill="none" xmlns="http://www.w3.org/2000/svg">
<g filter="url(#filter0_i_387_642)">
<path d="M8 2L9.34708 6.1459H13.7063L10.1796 8.7082L11.5267 12.8541L8 10.2918L4.47329 12.8541L5.82037 8.7082L2.29366 6.1459H6.65292L8 2Z" fill="#F2DF31"/>
</g>
<path d="M8.23776 1.92275L8 1.19098L7.76224 1.92275L6.47128 5.8959H2.29366H1.52424L2.14671 6.34815L5.52648 8.8037L4.23552 12.7768L3.99776 13.5086L4.62023 13.0564L8 10.6008L11.3798 13.0564L12.0022 13.5086L11.7645 12.7768L10.4735 8.8037L13.8533 6.34815L14.4758 5.8959H13.7063H9.52872L8.23776 1.92275Z" stroke="#FF8404" stroke-opacity="0.2" stroke-width="0.5"/>
<defs>
<filter id="filter0_i_387_642" x="0.754883" y="0.381836" width="14.4902" height="13.7812" filterUnits="userSpaceOnUse" color-interpolation-filters="sRGB">
<feFlood flood-opacity="0" result="BackgroundImageFix"/>
<feBlend mode="normal" in="SourceGraphic" in2="BackgroundImageFix" result="shape"/>
<feColorMatrix in="SourceAlpha" type="matrix" values="0 0 0 0 0 0 0 0 0 0 0 0 0 0 0 0 0 0 127 0" result="hardAlpha"/>
<feOffset/>
<feGaussianBlur stdDeviation="0.5"/>
<feComposite in2="hardAlpha" operator="arithmetic" k2="-1" k3="1"/>
<feColorMatrix type="matrix" values="0 0 0 0 1 0 0 0 0 0.517647 0 0 0 0 0.0156863 0 0 0 0.2 0"/>
<feBlend mode="normal" in2="shape" result="effect1_innerShadow_387_642"/>
</filter>
</defs>
</svg>
