<svg width="17" height="17" viewBox="0 0 17 17" fill="none" xmlns="http://www.w3.org/2000/svg">
<path d="M10.4408 6.37537L10.1957 12.7504M6.80425 12.7504L6.55917 6.37537M13.6198 4.10162C13.8621 4.13845 14.1029 4.17741 14.3437 4.2192M13.6198 4.10162L12.8633 13.9354C12.8325 14.3358 12.6516 14.7097 12.3569 14.9825C12.0622 15.2553 11.6754 15.4067 11.2738 15.4066H5.72617C5.32461 15.4067 4.93781 15.2553 4.64311 14.9825C4.34841 14.7097 4.16754 14.3358 4.13667 13.9354L3.38017 4.10162M13.6198 4.10162C12.8023 3.97803 11.9806 3.88423 11.1562 3.82041M3.38017 4.10162C3.13792 4.13774 2.89708 4.1767 2.65625 4.21849M3.38017 4.10162C4.19768 3.97803 5.01942 3.88423 5.84375 3.82041M11.1562 3.82041V3.17158C11.1562 2.33574 10.5117 1.63874 9.67583 1.61254C8.89214 1.58749 8.10786 1.58749 7.32417 1.61254C6.48833 1.63874 5.84375 2.33645 5.84375 3.17158V3.82041M11.1562 3.82041C9.38805 3.68376 7.61195 3.68376 5.84375 3.82041" stroke="#FFFFF8" stroke-linecap="round" stroke-linejoin="round"/>
</svg>
