<svg width="20" height="20" viewBox="0 0 20 20" fill="none" xmlns="http://www.w3.org/2000/svg">
<path d="M1.875 6.875H18.125M1.875 7.5H18.125M4.375 11.875H9.375M4.375 13.75H6.875M3.75 16.25H16.25C16.7473 16.25 17.2242 16.0525 17.5758 15.7008C17.9275 15.3492 18.125 14.8723 18.125 14.375V5.625C18.125 5.12772 17.9275 4.65081 17.5758 4.29917C17.2242 3.94754 16.7473 3.75 16.25 3.75H3.75C3.25272 3.75 2.77581 3.94754 2.42417 4.29917C2.07254 4.65081 1.875 5.12772 1.875 5.625V14.375C1.875 14.8723 2.07254 15.3492 2.42417 15.7008C2.77581 16.0525 3.25272 16.25 3.75 16.25Z" stroke="#000022" stroke-width="1" stroke-linecap="round" stroke-linejoin="round"/>
</svg>
